<?xml version="1.0" standalone="no"?>
<!DOCTYPE svg PUBLIC "-//W3C//DTD SVG 20010904//EN"
 "http://www.w3.org/TR/2001/REC-SVG-20010904/DTD/svg10.dtd">
<svg version="1.0" xmlns="http://www.w3.org/2000/svg"
 width="1024.000000pt" height="1024.000000pt" viewBox="0 0 1024.000000 1024.000000"
 preserveAspectRatio="xMidYMid meet">

<g transform="translate(0.000000,1024.000000) scale(0.100000,-0.100000)"
fill="#000000" stroke="none">
<path d="M2450 9300 c-361 -63 -672 -224 -930 -481 -326 -327 -500 -745 -500
-1204 0 -814 573 -1519 1370 -1686 121 -25 351 -35 776 -35 l261 1 136 128
c152 143 185 162 310 179 153 21 338 -29 435 -117 44 -39 92 -124 92 -162 l0
-23 714 0 714 0 7 33 c26 117 147 220 305 258 75 18 232 16 297 -4 73 -22 91
-33 153 -92 30 -28 95 -87 144 -130 l88 -77 421 6 c515 8 607 19 835 97 501
173 892 570 1056 1071 69 211 81 294 81 568 -1 222 -2 242 -29 354 -36 153
-76 266 -138 391 -236 470 -678 805 -1208 918 -92 19 -134 22 -335 21 -256 0
-327 -11 -534 -79 -535 -178 -966 -626 -1117 -1165 -55 -192 -57 -224 -63
-845 l-6 -580 -654 -3 c-451 -1 -658 1 -667 9 -10 8 -13 133 -17 582 -4 526
-6 581 -25 682 -136 720 -715 1281 -1434 1390 -137 21 -403 18 -538 -5z m406
-741 c381 -53 693 -324 811 -705 l27 -89 1 -560 0 -560 -565 0 c-549 0 -567 1
-647 22 -293 78 -542 297 -652 574 -52 130 -65 199 -65 359 -1 121 3 160 23
235 99 383 404 660 796 721 103 16 175 17 271 3z m4889 -24 c336 -85 597 -338
701 -681 25 -82 28 -103 28 -254 -1 -138 -4 -178 -22 -245 -58 -210 -183 -391
-366 -527 -93 -69 -188 -117 -311 -155 l-90 -28 -570 0 -570 0 0 555 c0 613
-1 606 66 766 126 302 434 543 759 593 101 15 261 5 375 -24z"/>
<path d="M3930 5893 c-8 -3 -67 -47 -130 -98 -63 -50 -151 -119 -195 -152 -44
-34 -132 -108 -195 -164 -63 -57 -153 -136 -200 -175 -108 -91 -128 -113 -140
-154 -14 -51 3 -99 52 -146 24 -23 142 -126 263 -230 121 -104 271 -232 333
-286 152 -132 224 -166 293 -138 52 22 59 50 59 238 0 131 3 172 14 181 10 8
290 10 1042 9 l1029 -3 5 -180 c4 -152 8 -185 23 -208 32 -49 108 -62 162 -28
17 10 98 75 180 145 83 69 236 195 340 280 249 201 305 262 305 333 0 68 -31
102 -252 281 -75 61 -225 188 -333 281 -108 93 -215 179 -239 190 -47 23 -93
27 -129 10 -46 -21 -52 -43 -57 -234 l-5 -180 -1029 -3 c-752 -1 -1032 1
-1042 9 -11 9 -14 50 -14 181 0 190 -7 218 -61 237 -34 12 -55 13 -79 4z"/>
<path d="M2460 4329 c-447 -52 -885 -327 -1153 -727 -119 -176 -207 -389 -254
-611 -25 -115 -27 -145 -27 -351 0 -196 3 -238 23 -330 53 -245 154 -481 289
-670 86 -122 280 -316 402 -402 615 -435 1423 -419 2033 38 115 87 299 280
379 399 134 200 225 418 270 648 20 105 22 145 25 672 2 308 6 570 8 583 l5
22 663 -2 662 -3 6 -565 c6 -555 9 -602 44 -769 39 -187 131 -398 253 -581 93
-140 290 -342 432 -443 194 -138 463 -249 705 -293 136 -25 432 -25 562 -1
382 71 705 244 966 517 281 293 446 669 465 1064 18 342 -33 599 -173 881
-231 463 -655 792 -1170 906 -94 21 -131 22 -581 26 l-482 5 -139 -135 c-126
-121 -146 -136 -204 -156 -262 -89 -596 43 -634 252 l-7 37 -714 0 -714 0 0
-22 c0 -13 -9 -42 -19 -64 -65 -144 -271 -244 -472 -231 -133 9 -168 28 -333
184 l-141 133 -450 -1 c-247 -1 -484 -5 -525 -10z m1235 -1294 c0 -555 0 -561
-23 -640 -48 -166 -130 -307 -247 -426 -308 -313 -760 -385 -1142 -184 -107
56 -184 116 -269 209 -432 468 -290 1229 281 1506 92 45 220 84 305 93 19 2
274 3 565 3 l530 -1 0 -560z m4074 532 c311 -90 556 -319 657 -614 44 -129 58
-224 51 -358 -11 -243 -98 -443 -271 -624 -90 -93 -169 -150 -287 -205 -149
-70 -237 -90 -409 -90 -172 0 -260 20 -409 90 -116 55 -196 112 -287 206 -118
120 -195 252 -245 419 -23 72 -23 87 -27 628 -2 304 -1 560 2 568 5 12 88 14
568 11 l563 -4 94 -27z"/>
</g>
</svg>
